<?xml version="1.0" encoding="utf-8"?>
<!-- Generator: Adobe Illustrator 22.0.0, SVG Export Plug-In . SVG Version: 6.00 Build 0)  -->
<svg version="1.1" id="Layer_1" xmlns="http://www.w3.org/2000/svg" xmlns:xlink="http://www.w3.org/1999/xlink" x="0px" y="0px"
	 viewBox="0 0 512 512" style="enable-background:new 0 0 512 512;" xml:space="preserve">
<style type="text/css">
	.st0{fill:#FFFFFF;}
</style>
<path class="st0" d="M382,0H236c-5.5,0-10,4.5-10,10s4.5,10,10,10h146c60.7,0,110,49.3,110,110v252c0,60.7-49.3,110-110,110H130
	c-60.7,0-110-49.3-110-110V130C20,69.3,69.3,20,130,20h26c5.5,0,10-4.5,10-10s-4.5-10-10-10h-26C58.3,0,0,58.3,0,130v252
	c0,71.7,58.3,130,130,130h252c71.7,0,130-58.3,130-130V130C512,58.3,453.7,0,382,0z"/>
<path class="st0" d="M356,472h26c49.6,0,90-40.4,90-90V130c0-49.6-40.4-90-90-90H130c-49.6,0-90,40.4-90,90v252
	c0,49.6,40.4,90,90,90h146c5.5,0,10-4.5,10-10s-4.5-10-10-10H130c-38.6,0-70-31.4-70-70V130c0-38.6,31.4-70,70-70h252
	c38.6,0,70,31.4,70,70v252c0,38.6-31.4,70-70,70h-26c-5.5,0-10,4.5-10,10S350.5,472,356,472z"/>
<path class="st0" d="M366,256c0-60.7-49.3-110-110-110s-110,49.3-110,110s49.3,110,110,110S366,316.7,366,256z M256,346
	c-49.6,0-90-40.4-90-90s40.4-90,90-90s90,40.4,90,90S305.6,346,256,346z"/>
<path class="st0" d="M256,186c-38.6,0-70,31.4-70,70s31.4,70,70,70s70-31.4,70-70S294.6,186,256,186z M256,306
	c-27.6,0-50-22.4-50-50s22.4-50,50-50s50,22.4,50,50S283.6,306,256,306z"/>
<path class="st0" d="M422,130c0-22.1-17.9-40-40-40c-22.1,0-40,17.9-40,40c0,22.1,17.9,40,40,40C404.1,170,422,152.1,422,130z
	 M362,130c0-11,9-20,20-20s20,9,20,20c0,11-9,20-20,20S362,141,362,130z"/>
<path class="st0" d="M196,20c5.5,0,10-4.5,10-10s-4.5-10-10-10h0c-5.5,0-10,4.5-10,10S190.5,20,196,20z"/>
<path class="st0" d="M316,452c-5.5,0-10,4.5-10,10s4.5,10,10,10s10-4.5,10-10S321.5,452,316,452L316,452z"/>
</svg>
