<?xml version="1.0" encoding="utf-8"?>
<!-- Generator: Adobe Illustrator 22.0.0, SVG Export Plug-In . SVG Version: 6.00 Build 0)  -->
<svg version="1.1" id="Layer_1" xmlns="http://www.w3.org/2000/svg" xmlns:xlink="http://www.w3.org/1999/xlink" x="0px" y="0px"
	 viewBox="0 0 512 512" style="enable-background:new 0 0 512 512;" xml:space="preserve">
<style type="text/css">
	.st0{fill:#FFFFFF;}
</style>
<path class="st0" d="M436.7,74.3C388.8,26.4,325.1,0,257.4,0c-53.3,0-104.3,16.3-147.5,47.3c-4.5,3.2-5.5,9.5-2.3,14
	c3.2,4.5,9.5,5.5,14,2.3C161.3,35.1,208.3,20,257.4,20C386.2,20,491,124.8,491,253.6c0,128.8-104.8,233.6-233.6,233.6
	c-39.2,0-78.1-9.9-112.2-28.7c-2.3-1.2-4.9-1.6-7.4-0.9L26.4,487.8l30.4-108.3c0.7-2.6,0.4-5.4-1-7.8c-20.9-35.7-32-76.5-32-118.1
	c0-49.1,15.1-96.1,43.5-135.8c3.2-4.5,2.2-10.7-2.3-13.9c-4.5-3.2-10.7-2.2-14,2.3C20.1,149.3,3.7,200.3,3.7,253.6
	c0,43.7,11.3,86.6,32.6,124.5l-34,121.2c-1,3.5,0,7.2,2.5,9.7c1.9,1.9,4.5,3,7.1,3c0.9,0,1.7-0.1,2.6-0.3L139.1,478
	c36.2,19.1,77,29.2,118.3,29.2c67.7,0,131.4-26.4,179.3-74.3c47.9-47.9,74.3-111.6,74.3-179.3C511,185.9,484.6,122.2,436.7,74.3z"/>
<path class="st0" d="M421.3,374.8c4.6,3.1,10.8,1.8,13.9-2.8C458.6,337,471,296,471,253.6c0-57.1-22.2-110.7-62.6-151.1
	S314.4,40,257.4,40s-110.7,22.2-151.1,62.6s-62.6,94-62.6,151.1c0,38,10.1,75.3,29.2,107.9l6.5,11l-19.6,69.8c-1,3.5,0,7.2,2.5,9.7
	s6.2,3.6,9.7,2.6l72-19.5l10.6,5.8c31.2,17.2,66.7,26.2,102.6,26.2c42.4,0,83.3-12.4,118.5-35.8c4.6-3.1,5.8-9.3,2.8-13.9
	s-9.3-5.8-13.9-2.8c-31.8,21.2-68.9,32.5-107.4,32.5c-32.5,0-64.7-8.2-93-23.7l-14.1-7.8c-2.3-1.2-4.9-1.6-7.4-0.9l-58.9,15.9
	l16-56.9c0.7-2.6,0.4-5.4-1-7.8l-8.6-14.7c-17.3-29.5-26.5-63.4-26.5-97.8C63.7,146.9,150.6,60,257.4,60S451,146.9,451,253.6
	c0,38.4-11.2,75.5-32.5,107.4C415.4,365.6,416.7,371.8,421.3,374.8z"/>
<path class="st0" d="M220.8,222.9l0.7-0.8c9-10.1,6.7-21.9,3.2-30c-5.1-12-18.6-42.7-19.8-45.6c-2-5-8.6-13-21.9-13.2
	c-10.4-0.2-13.8,0.1-14.6,0.2c-0.1,0-0.2,0-0.2,0c-1.5,0.2-37.5,6.1-43.8,60c-2.9,24.8,8.6,54.4,34.2,87.9
	c28.3,37.1,54.2,59.2,92.6,78.8c19.1,9.8,47.1,21.2,73.1,21.2c0.8,0,1.7,0,2.5,0c29.2-0.9,44.8-13,52.8-23
	c8.4-10.7,10.2-21.1,10.4-23c0.2-1.2,0.6-4.8,0.8-14.3c0.4-13.3-7.3-20.3-12.2-22.5c-2.8-1.4-31.4-15.6-43.1-21.3
	c-7.9-3.8-19.6-6-30.1,5.3c-0.1,0.1-0.1,0.1-0.2,0.2c-1.4,1.2-2.8,3.1-7.1,8.8c-2.6,3.5-7.9,10.5-10.1,12.9
	c-4.7,0.3-20.4-6.6-42.7-23.9c-14.1-10.9-29.1-27.8-37.4-42.2c-0.1-0.2-0.1-0.6-0.1-0.8C211.3,234,216.9,227.5,220.8,222.9z
	 M233.1,296.3c6.7,5.2,19.7,14.8,32.4,21.2c6,3,24.1,12.3,35.4,2.3c3.1-2.7,7.5-8.5,13.4-16.4c1.7-2.3,3.8-5,4.6-6
	c0.5-0.5,1-0.9,1.4-1.4c1.8-2,2.6-2.8,6.6-0.9c12,5.8,42.1,20.8,43.2,21.3c0.4,0.4,0.9,1.6,0.9,4c-0.2,8.3-0.5,11.3-0.6,11.8
	c0,0.2,0,0.1,0,0.3c-0.1,0.7-1.4,7.4-6.9,14c-7.8,9.3-20.2,14.2-37.1,14.7c-22.5,0.7-48.3-9.9-65.9-19c-36-18.3-59.2-38.1-85.8-73.1
	c-22-28.8-32.4-54.2-30.2-73.5c4.2-36.2,24-41.9,26.7-42.5c0.9-0.1,4.1-0.2,11.6,0c2.4,0.1,3.6,0.7,3.9,1.1
	c0.5,1.1,14.6,33.3,19.9,45.6c2.6,6.2,1,8,0.2,8.8c-0.1,0.2-0.3,0.3-0.4,0.4l-0.6,0.7c-5.8,6.8-9.8,11.4-12.1,13.7
	c-7.4,7.6-6.7,18.1-2.9,24.6C200.2,264.9,216.9,283.8,233.1,296.3z"/>
<path class="st0" d="M85.1,91.4c2.4,0,4.8-0.9,6.7-2.6c4.1-3.7,4.4-10,0.7-14.1c-3.7-4.1-10-4.4-14.1-0.7l0,0
	c-4.1,3.7-4.4,10-0.7,14.1C79.7,90.3,82.4,91.4,85.1,91.4z"/>
<path class="st0" d="M393.9,390.9L393.9,390.9c-3.7,4.1-3.4,10.4,0.7,14.1c1.9,1.7,4.3,2.6,6.7,2.6c2.7,0,5.4-1.1,7.4-3.3
	c3.7-4.1,3.4-10.4-0.7-14.1S397.6,386.8,393.9,390.9z"/>
</svg>
